<?xml version="1.0" standalone="no"?>
<!DOCTYPE svg PUBLIC "-//W3C//DTD SVG 20010904//EN"
 "http://www.w3.org/TR/2001/REC-SVG-20010904/DTD/svg10.dtd">
<svg version="1.0" xmlns="http://www.w3.org/2000/svg"
 width="695.000000pt" height="187.000000pt" viewBox="0 0 695.000000 187.000000"
 preserveAspectRatio="xMidYMid meet">
<metadata>
Created by potrace 1.16, written by Peter Selinger 2001-2019
</metadata>
<g transform="translate(0.000000,187.000000) scale(0.100000,-0.100000)"
fill="#000000" stroke="none">
<path d="M500 1808 c-169 -21 -254 -121 -251 -297 1 -46 -8 -91 -29 -158 -17
-51 -30 -102 -30 -112 0 -10 -18 -74 -40 -141 -61 -186 -54 -250 34 -346 39
-42 38 -35 36 -209 -1 -74 -7 -132 -21 -180 -45 -165 -8 -244 122 -253 48 -4
64 0 103 23 25 15 53 37 61 49 14 19 17 20 39 6 13 -8 40 -28 60 -43 70 -56
159 -45 228 28 l41 43 51 -33 c95 -63 196 -70 301 -20 65 30 84 31 135 5 56
-29 133 -26 206 6 63 28 88 26 133 -7 39 -29 134 -28 192 1 49 25 124 38 289
49 78 5 126 13 148 24 29 16 35 16 60 3 103 -58 113 -60 187 -46 39 7 99 16
135 20 36 4 81 14 101 24 35 16 35 16 105 -20 63 -33 74 -35 126 -30 47 6 66
3 117 -19 129 -54 242 -19 388 122 63 61 88 61 95 -2 6 -50 35 -92 81 -117 43
-23 72 -22 124 3 34 16 51 34 76 79 17 33 40 61 50 64 10 2 37 -1 60 -8 39
-11 43 -15 54 -59 35 -141 123 -185 245 -124 52 25 55 25 117 12 36 -8 69 -11
74 -8 5 3 69 7 141 7 l131 2 63 37 c35 20 69 37 77 37 19 0 112 -36 150 -58
21 -11 50 -17 95 -16 56 1 75 6 133 39 l68 38 82 -18 c45 -10 99 -26 119 -36
72 -37 190 -18 267 43 28 22 48 17 104 -23 72 -52 137 -51 231 6 31 18 64 35
74 36 59 6 83 -3 131 -46 57 -50 103 -63 161 -46 50 15 82 41 105 87 42 81
103 182 123 202 12 12 39 30 60 41 87 44 132 104 132 176 0 78 -52 154 -118
172 -50 14 -224 10 -294 -7 -56 -13 -58 -12 -96 13 -50 36 -135 38 -177 6 -15
-12 -39 -21 -53 -21 -15 1 -67 3 -117 5 -78 3 -99 8 -155 37 -60 31 -69 32
-136 26 -81 -6 -86 -3 -77 60 7 57 -14 123 -52 161 -29 29 -39 33 -86 33 -85
0 -113 -27 -183 -179 -15 -32 -54 -59 -91 -63 l-30 -3 -6 70 c-9 121 -54 175
-144 175 -78 0 -116 -32 -166 -142 -27 -57 -38 -70 -73 -86 -83 -39 -114 -52
-120 -52 -4 0 -4 35 -1 78 7 90 -9 132 -64 169 -35 23 -97 29 -150 14 -14 -4
-48 1 -82 12 -109 36 -179 5 -251 -108 -14 -22 -32 -46 -41 -53 -16 -14 -57
-8 -57 8 0 18 -54 72 -87 85 -48 20 -75 19 -126 -5 -55 -27 -84 -70 -141 -214
-26 -65 -55 -131 -64 -145 -19 -30 -26 -30 -103 7 -37 18 -49 30 -63 65 -9 23
-16 48 -16 55 0 22 -31 61 -65 82 -42 26 -123 27 -173 1 -45 -23 -108 -89
-150 -158 -8 -13 -52 -7 -52 7 0 4 -17 19 -39 34 -31 21 -58 29 -132 38 -154
17 -191 9 -241 -51 -36 -41 -57 -42 -94 -2 -28 32 -39 36 -120 47 -141 20
-192 18 -243 -11 l-43 -25 -50 45 c-76 68 -137 72 -250 16 -62 -32 -97 -38
-113 -22 -34 32 -96 56 -159 61 l-70 5 -11 55 c-21 103 -61 145 -138 145 -63
0 -115 -35 -140 -93 -17 -39 -50 -169 -61 -237 -11 -64 -49 -182 -67 -206 -14
-19 -28 -23 -85 -26 -41 -1 -88 -11 -117 -23 -26 -12 -52 -18 -57 -15 -12 7
-13 185 -2 200 4 6 30 29 57 52 37 30 55 54 69 93 22 62 18 108 -19 230 -14
47 -32 119 -40 160 -7 41 -23 104 -34 140 -18 57 -19 72 -9 130 10 57 9 73 -7
124 -23 74 -50 113 -100 148 -67 46 -153 61 -275 46z"/>
</g>
</svg>
