<?xml version="1.0" standalone="no"?>
<!DOCTYPE svg PUBLIC "-//W3C//DTD SVG 20010904//EN"
 "http://www.w3.org/TR/2001/REC-SVG-20010904/DTD/svg10.dtd">
<svg version="1.0" xmlns="http://www.w3.org/2000/svg"
 width="424.000000pt" height="64.000000pt" viewBox="0 0 424.000000 64.000000"
 preserveAspectRatio="xMidYMid meet">
<metadata>
Created by potrace 1.16, written by Peter Selinger 2001-2019
</metadata>
<g transform="translate(0.000000,64.000000) scale(0.100000,-0.100000)"
fill="#000000" stroke="none">
<path d="M2903 513 c-24 -2 -43 -8 -43 -14 0 -5 6 -9 14 -9 26 0 36 -24 26
-62 -10 -35 -11 -35 -53 -31 -84 8 -156 -63 -157 -155 0 -80 73 -119 134 -71
26 20 28 20 46 4 15 -13 29 -16 56 -12 44 7 70 27 36 27 -13 0 -25 7 -28 15
-5 12 47 259 63 303 5 12 -4 13 -94 5z m-33 -148 c14 -17 -3 -114 -27 -153
-32 -53 -83 -2 -69 69 14 77 65 122 96 84z"/>
<path d="M3218 513 c-41 -5 -50 -18 -18 -26 21 -5 25 -31 14 -74 -5 -19 -11
-21 -53 -17 -86 9 -151 -56 -151 -153 0 -44 4 -55 26 -72 33 -26 60 -26 99 -3
27 17 32 17 56 3 21 -12 35 -13 65 -6 43 11 60 35 19 28 -33 -7 -33 9 5 173
16 71 30 135 30 142 0 12 -15 13 -92 5z m-29 -147 c16 -19 -17 -155 -41 -170
-25 -15 -52 4 -56 39 -11 91 56 181 97 131z"/>
<path d="M185 481 c-3 -5 4 -12 15 -16 26 -8 25 -26 -4 -147 -27 -113 -46
-148 -81 -148 -28 0 -32 12 -10 30 19 16 19 54 0 70 -22 18 -64 4 -71 -24 -9
-36 4 -64 36 -81 36 -19 71 -19 114 -1 52 22 72 57 101 181 24 103 29 116 51
121 13 3 24 10 24 15 0 12 -167 12 -175 0z"/>
<path d="M2060 484 c0 -3 9 -13 21 -23 l20 -16 -26 -115 c-26 -114 -45 -150
-81 -150 -8 0 -14 -4 -14 -10 0 -12 137 -14 144 -1 3 4 -6 13 -19 19 -14 7
-25 20 -25 29 0 22 47 223 53 229 2 2 13 -58 23 -133 14 -104 23 -138 34 -141
10 -2 44 44 99 133 46 74 86 133 89 131 5 -6 -38 -206 -50 -229 -5 -10 -21
-23 -36 -30 -24 -11 -17 -12 62 -15 49 -2 91 0 94 3 3 3 -4 12 -15 20 -18 13
-20 20 -13 48 5 17 18 76 30 130 19 86 24 98 46 103 47 12 23 24 -50 24 l-73
0 -63 -105 c-35 -58 -65 -104 -66 -102 -2 1 -8 34 -13 72 -6 39 -13 85 -16
103 l-6 32 -74 0 c-41 0 -75 -3 -75 -6z"/>
<path d="M440 389 c-63 -26 -109 -105 -94 -163 3 -13 17 -35 31 -48 34 -32
128 -33 169 -2 47 35 67 69 68 118 1 63 -33 97 -101 102 -26 2 -59 -1 -73 -7z
m90 -34 c12 -33 -4 -122 -29 -155 -20 -28 -48 -37 -63 -22 -26 26 1 173 35
194 23 15 48 8 57 -17z"/>
<path d="M730 381 c-74 -39 -106 -156 -55 -206 30 -30 67 -32 106 -4 26 18 30
19 45 5 18 -19 52 -20 91 -5 l28 12 -25 6 c-33 9 -35 24 -11 123 10 45 18 84
17 85 -1 2 -17 -2 -35 -7 -22 -6 -40 -6 -52 0 -28 15 -71 12 -109 -9z"/>
<path d="M983 390 c-32 -13 -29 -28 4 -22 26 5 26 5 20 -44 -4 -27 -13 -75
-21 -106 l-14 -58 38 0 38 0 21 86 c20 86 37 113 73 114 28 0 31 -18 13 -91
-17 -66 -17 -71 0 -89 20 -23 51 -25 92 -8 25 10 26 12 8 16 -37 8 -39 19 -20
96 18 73 18 76 0 96 -23 25 -60 26 -106 1 -35 -19 -36 -19 -52 0 -18 20 -57
24 -94 9z"/>
<path d="M1313 390 c-32 -13 -29 -28 4 -22 26 5 26 5 20 -44 -4 -27 -13 -75
-21 -106 l-14 -58 38 0 38 0 21 86 c20 86 37 113 73 114 28 0 31 -18 13 -91
-17 -66 -17 -71 0 -89 20 -23 51 -25 92 -8 25 10 26 12 8 16 -37 8 -39 19 -20
96 18 73 18 76 0 96 -23 25 -60 26 -106 1 -35 -19 -36 -19 -52 0 -18 20 -57
24 -94 9z"/>
<path d="M1710 381 c-67 -35 -101 -124 -70 -182 14 -25 62 -49 100 -49 31 0
103 31 115 50 14 23 -7 30 -32 10 -34 -27 -78 -26 -97 2 -25 36 -19 44 38 57
66 15 106 44 106 76 0 52 -92 73 -160 36z"/>
<path d="M2533 390 c-31 -13 -29 -28 2 -22 31 5 32 -6 8 -105 -16 -70 -16 -73
3 -94 15 -17 27 -20 58 -16 48 7 73 27 33 27 -33 0 -35 16 -10 112 16 64 16
68 -1 87 -20 22 -56 26 -93 11z"/>
<path d="M3420 389 c-63 -26 -109 -105 -94 -163 3 -13 17 -35 31 -48 34 -32
128 -33 169 -2 47 35 67 69 68 118 1 63 -33 97 -101 102 -26 2 -59 -1 -73 -7z
m90 -34 c12 -33 -4 -122 -29 -155 -20 -28 -48 -37 -63 -22 -26 26 1 173 35
194 23 15 48 8 57 -17z"/>
<path d="M3640 385 l-25 -14 27 -1 c38 0 41 -11 23 -79 -21 -83 -20 -118 6
-132 28 -14 82 -4 104 21 18 20 18 20 41 -1 19 -17 31 -21 60 -16 44 7 70 27
36 27 -13 0 -25 7 -28 15 -5 12 14 119 32 178 4 14 -1 17 -34 17 l-40 0 -18
-81 c-19 -87 -43 -129 -76 -129 -19 0 -20 4 -14 45 3 25 9 66 12 92 6 38 4 48
-11 60 -24 17 -63 16 -95 -2z"/>
<path d="M3973 390 c-30 -12 -29 -28 1 -23 34 7 37 -13 15 -103 -25 -108 -25
-106 18 -102 l37 3 18 78 c19 82 33 117 48 117 5 0 10 -12 12 -27 6 -54 78
-38 78 16 0 51 -44 67 -89 32 -23 -18 -24 -18 -42 0 -20 20 -59 24 -96 9z"/>
</g>
</svg>
