<?xml version="1.0" standalone="no"?>
<!DOCTYPE svg PUBLIC "-//W3C//DTD SVG 20010904//EN"
 "http://www.w3.org/TR/2001/REC-SVG-20010904/DTD/svg10.dtd">
<svg version="1.0" xmlns="http://www.w3.org/2000/svg"
 width="297.000000pt" height="54.000000pt" viewBox="0 0 297.000000 54.000000"
 preserveAspectRatio="xMidYMid meet">
<metadata>
Created by potrace 1.16, written by Peter Selinger 2001-2019
</metadata>
<g transform="translate(0.000000,54.000000) scale(0.100000,-0.100000)"
fill="#000000" stroke="none">
<path d="M2153 452 c-31 -5 -80 -56 -88 -91 -5 -22 -14 -31 -35 -36 -33 -7
-97 -73 -106 -109 -3 -13 -4 -37 -2 -52 4 -35 35 -43 72 -18 24 15 26 15 26 0
0 -24 25 -20 57 10 20 18 22 22 6 12 -12 -7 -24 -10 -27 -8 -7 8 50 238 64
255 7 8 25 15 41 15 16 0 29 4 29 9 0 14 -11 18 -37 13z"/>
<path d="M2363 452 c-31 -5 -80 -56 -88 -91 -5 -22 -14 -31 -35 -36 -33 -7
-97 -73 -106 -109 -3 -13 -4 -37 -2 -52 4 -35 35 -43 72 -18 24 15 26 15 26 0
0 -24 25 -20 57 10 20 18 22 22 6 12 -12 -7 -24 -10 -27 -8 -7 8 50 238 64
255 7 8 25 15 41 15 16 0 29 4 29 9 0 14 -11 18 -37 13z"/>
<path d="M1544 395 c8 -23 -18 -145 -43 -193 -22 -43 -36 -52 -83 -52 -38 0
-33 -24 6 -28 48 -6 105 66 121 151 11 55 25 55 26 0 0 -26 4 -70 7 -98 l7
-50 39 65 c45 74 87 132 92 127 3 -3 -21 -98 -42 -169 -4 -13 0 -18 14 -18 16
0 24 19 50 118 17 64 34 127 38 140 4 13 2 22 -5 22 -12 0 -81 -84 -124 -153
-17 -26 -32 -45 -35 -42 -3 3 -8 47 -11 97 l-6 93 -29 3 c-23 3 -28 0 -22 -13z"/>
<path d="M373 315 c-42 -18 -73 -69 -73 -121 0 -48 14 -64 56 -64 87 0 147
151 75 189 -24 13 -19 13 -58 -4z"/>
<path d="M585 316 c-84 -37 -141 -186 -72 -186 13 0 32 7 43 15 25 19 35 19
28 0 -10 -25 32 -18 63 11 25 22 25 24 5 14 -13 -6 -26 -9 -29 -7 -2 3 4 38
15 78 11 41 18 77 16 81 -7 12 -35 9 -69 -6z"/>
<path d="M732 310 c-18 -11 -32 -25 -32 -31 0 -8 5 -8 15 1 9 7 17 11 20 8 2
-2 -4 -39 -14 -81 -18 -74 -18 -77 0 -77 13 0 20 13 29 56 12 58 45 104 75
104 18 0 18 -3 0 -64 -28 -92 -11 -122 43 -77 28 24 29 35 1 21 -11 -7 -22
-10 -24 -8 -3 2 5 35 16 72 18 58 19 71 7 82 -11 12 -19 10 -50 -11 -44 -30
-51 -31 -43 -6 9 29 -7 32 -43 11z"/>
<path d="M952 310 c-18 -11 -32 -25 -32 -31 0 -8 5 -8 15 1 9 7 17 11 20 8 2
-2 -4 -39 -14 -81 -18 -74 -18 -77 0 -77 13 0 20 13 29 56 12 58 45 104 75
104 18 0 18 -3 0 -64 -28 -92 -11 -122 43 -77 28 24 29 35 1 21 -11 -7 -22
-10 -24 -8 -3 2 5 35 16 72 18 58 19 71 7 82 -11 12 -19 10 -50 -11 -44 -30
-51 -31 -43 -6 9 29 -7 32 -43 11z"/>
<path d="M2424 320 c-55 -22 -98 -116 -75 -166 22 -50 111 -22 146 46 38 74
-5 147 -71 120z"/>
<path d="M2585 318 c-30 -16 -31 -18 -15 -28 12 -7 11 -17 -3 -69 -9 -33 -17
-68 -17 -76 0 -22 43 -19 74 6 l26 20 0 -20 c0 -12 6 -21 15 -21 21 0 65 29
65 43 0 7 -4 7 -12 -1 -31 -31 -36 -11 -16 68 12 45 18 84 14 87 -11 12 -27
-13 -41 -67 -14 -53 -48 -100 -72 -100 -17 0 -16 7 3 86 18 70 12 90 -21 72z"/>
</g>
</svg>
