<?xml version="1.0" standalone="no"?>
<!DOCTYPE svg PUBLIC "-//W3C//DTD SVG 20010904//EN"
 "http://www.w3.org/TR/2001/REC-SVG-20010904/DTD/svg10.dtd">
<svg version="1.0" xmlns="http://www.w3.org/2000/svg"
 width="82.000000pt" height="40.000000pt" viewBox="0 0 82.000000 40.000000"
 preserveAspectRatio="xMidYMid meet">
<metadata>
Created by potrace 1.16, written by Peter Selinger 2001-2019
</metadata>
<g transform="translate(0.000000,40.000000) scale(0.100000,-0.100000)"
fill="#000000" stroke="none">
<path d="M610 294 l-49 -45 -3 28 c-2 22 -9 29 -29 31 -57 7 -180 -154 -165
-214 12 -44 40 -29 69 36 14 33 29 60 34 60 5 0 14 -13 20 -30 16 -42 47 -39
89 7 35 38 36 37 48 -19 5 -22 12 -28 32 -28 25 0 25 2 19 40 -6 33 -2 50 18
89 51 97 1 124 -83 45z"/>
<path d="M320 284 c-47 -7 -135 -26 -157 -35 -16 -6 -20 -14 -16 -30 5 -19 10
-21 55 -15 l49 7 -20 -40 c-25 -47 -55 -71 -93 -71 -31 0 -36 11 -13 30 19 16
19 34 1 49 -12 10 -20 9 -39 -4 -33 -21 -40 -41 -27 -81 30 -91 205 -34 240
78 18 56 28 68 55 68 12 0 25 3 28 6 9 10 -12 44 -26 43 -7 -1 -23 -3 -37 -5z"/>
</g>
</svg>
