<?xml version="1.0" standalone="no"?>
<!DOCTYPE svg PUBLIC "-//W3C//DTD SVG 20010904//EN"
 "http://www.w3.org/TR/2001/REC-SVG-20010904/DTD/svg10.dtd">
<svg version="1.0" xmlns="http://www.w3.org/2000/svg"
 width="96.000000pt" height="54.000000pt" viewBox="0 0 96.000000 54.000000"
 preserveAspectRatio="xMidYMid meet">
<metadata>
Created by potrace 1.16, written by Peter Selinger 2001-2019
</metadata>
<g transform="translate(0.000000,54.000000) scale(0.100000,-0.100000)"
fill="#000000" stroke="none">
<path d="M736 428 c-17 -18 -43 -48 -57 -65 l-24 -33 0 41 c0 76 -45 75 -118
-4 -67 -72 -122 -184 -113 -231 4 -19 11 -38 16 -41 17 -10 47 14 55 42 10 41
46 123 54 123 4 0 12 -17 17 -37 16 -66 77 -58 120 14 26 44 29 46 32 23 2
-14 8 -42 13 -62 9 -34 13 -38 41 -38 29 0 30 1 23 33 -12 51 -8 85 20 145 35
76 29 122 -16 122 -22 0 -41 -10 -63 -32z"/>
<path d="M287 370 c-100 -25 -117 -35 -117 -66 0 -32 22 -40 72 -25 22 7 41
11 43 9 2 -2 -6 -27 -17 -56 -22 -59 -62 -92 -110 -92 -32 0 -34 8 -13 36 33
44 9 93 -35 71 -52 -26 -63 -107 -22 -157 14 -18 28 -22 70 -22 99 1 165 61
198 180 15 53 21 63 43 68 59 13 59 13 52 42 -6 23 -13 27 -47 29 -21 1 -74
-7 -117 -17z"/>
</g>
</svg>
