<?xml version="1.0" standalone="no"?>
<!DOCTYPE svg PUBLIC "-//W3C//DTD SVG 20010904//EN"
 "http://www.w3.org/TR/2001/REC-SVG-20010904/DTD/svg10.dtd">
<svg version="1.0" xmlns="http://www.w3.org/2000/svg"
 width="424.000000pt" height="64.000000pt" viewBox="0 0 424.000000 64.000000"
 preserveAspectRatio="xMidYMid meet">
<metadata>
Created by potrace 1.16, written by Peter Selinger 2001-2019
</metadata>
<g transform="translate(0.000000,64.000000) scale(0.100000,-0.100000)"
fill="#000000" stroke="none">
<path d="M2903 513 c-24 -2 -43 -8 -43 -14 0 -5 6 -9 14 -9 26 0 36 -24 26
-62 -10 -35 -11 -35 -53 -31 -84 8 -156 -63 -157 -155 0 -80 73 -119 134 -71
26 20 28 20 46 4 15 -13 29 -16 56 -12 44 7 70 27 36 27 -13 0 -25 7 -28 15
-5 11 43 244 61 303 4 12 -4 13 -92 5z m-33 -148 c14 -17 -3 -114 -27 -153
-32 -53 -83 -2 -69 69 14 77 65 122 96 84z"/>
<path d="M3223 513 c-24 -2 -43 -8 -43 -14 0 -5 6 -9 13 -9 27 0 35 -20 25
-60 l-10 -39 -47 5 c-86 9 -151 -57 -151 -153 0 -44 4 -55 26 -72 33 -26 60
-26 99 -3 27 17 32 17 56 3 21 -12 35 -13 65 -6 43 11 60 35 19 28 -33 -7 -33
9 5 173 16 71 30 135 30 142 0 6 -10 11 -22 10 -13 -1 -42 -3 -65 -5z m-34
-147 c16 -19 -17 -155 -41 -170 -25 -15 -52 4 -56 39 -11 91 56 181 97 131z"/>
<path d="M180 481 c0 -5 9 -13 20 -16 26 -8 25 -26 -4 -147 -27 -113 -46 -148
-81 -148 -28 0 -32 12 -10 30 19 16 19 54 0 70 -22 18 -64 4 -71 -24 -9 -36 4
-64 36 -81 36 -19 71 -19 114 -1 52 22 72 57 101 181 24 103 29 116 51 121 51
13 20 24 -66 24 -50 0 -90 -4 -90 -9z"/>
<path d="M2057 483 c-4 -3 3 -11 16 -18 27 -14 26 -40 -6 -170 -20 -83 -25
-91 -54 -105 -18 -8 -33 -18 -33 -22 0 -11 138 -10 144 1 3 4 -6 13 -19 19
-14 7 -25 20 -25 29 0 22 47 223 53 229 2 2 13 -58 23 -133 14 -104 23 -138
34 -141 10 -2 44 45 100 133 46 75 87 138 91 140 8 5 -44 -226 -55 -243 -4 -7
-20 -19 -34 -25 -24 -11 -16 -12 62 -15 53 -2 93 1 100 8 7 7 5 10 -5 10 -27
0 -37 20 -29 53 5 18 18 76 30 130 19 86 24 98 46 103 47 12 23 24 -50 24
l-73 0 -64 -106 -64 -106 -7 34 c-4 18 -12 66 -18 106 l-12 72 -72 0 c-40 0
-76 -3 -79 -7z"/>
<path d="M440 389 c-63 -26 -109 -105 -94 -163 3 -13 17 -35 31 -48 34 -32
128 -33 169 -2 47 35 67 69 68 118 1 63 -33 97 -101 102 -26 2 -59 -1 -73 -7z
m90 -34 c12 -32 -4 -122 -29 -155 -26 -35 -58 -38 -71 -6 -16 43 12 157 44
178 22 15 47 7 56 -17z"/>
<path d="M730 381 c-74 -39 -106 -156 -55 -206 30 -30 67 -32 106 -4 26 18 30
19 45 5 18 -18 51 -20 88 -6 33 12 34 29 1 22 -32 -6 -32 12 -6 123 11 44 18
81 17 82 -1 2 -17 -2 -35 -7 -22 -6 -40 -6 -52 0 -28 15 -71 12 -109 -9z m105
-20 c7 -22 -21 -139 -38 -159 -16 -20 -51 -10 -61 19 -20 57 24 159 68 159 16
0 27 -7 31 -19z"/>
<path d="M983 390 c-32 -13 -29 -28 4 -22 26 5 26 5 20 -44 -4 -27 -13 -75
-21 -106 l-14 -58 38 0 38 0 21 87 c20 88 37 113 72 113 29 0 32 -18 14 -91
-17 -66 -17 -71 0 -89 20 -23 51 -25 92 -8 25 10 26 12 8 16 -37 8 -39 19 -20
96 18 73 18 76 0 96 -23 25 -60 26 -106 1 -35 -19 -36 -19 -52 0 -18 20 -57
24 -94 9z"/>
<path d="M1313 390 c-32 -13 -29 -28 4 -22 26 5 26 5 20 -44 -4 -27 -13 -75
-21 -106 l-14 -58 38 0 38 0 21 87 c20 88 37 113 72 113 29 0 32 -18 14 -91
-17 -66 -17 -71 0 -89 20 -23 51 -25 92 -8 25 10 26 12 8 16 -37 8 -39 19 -20
96 18 73 18 76 0 96 -23 25 -60 26 -106 1 -35 -19 -36 -19 -52 0 -18 20 -57
24 -94 9z"/>
<path d="M1710 381 c-67 -35 -101 -124 -70 -182 14 -25 62 -49 100 -49 31 0
103 31 115 50 14 23 -7 30 -32 10 -34 -27 -78 -26 -97 2 -26 36 -19 46 38 58
65 13 106 42 106 75 0 52 -92 73 -160 36z"/>
<path d="M2533 390 c-31 -13 -29 -28 2 -22 31 5 32 -6 8 -105 -16 -70 -16 -73
3 -94 15 -17 27 -20 58 -16 48 7 73 27 33 27 -33 0 -35 16 -10 112 16 64 16
68 -1 87 -20 22 -56 26 -93 11z"/>
<path d="M3420 389 c-63 -26 -109 -105 -94 -163 3 -13 17 -35 31 -48 34 -32
128 -33 169 -2 47 35 67 69 68 118 1 63 -33 97 -101 102 -26 2 -59 -1 -73 -7z
m90 -34 c12 -32 -4 -122 -29 -155 -26 -35 -58 -38 -71 -6 -16 43 12 157 44
178 22 15 47 7 56 -17z"/>
<path d="M3643 388 c-30 -14 -29 -26 1 -21 34 7 39 -9 21 -76 -21 -81 -20
-118 4 -131 30 -16 55 -12 94 14 35 24 36 24 53 5 20 -22 50 -24 91 -7 27 11
27 12 5 16 -13 2 -26 10 -29 17 -4 12 16 120 33 178 4 14 -1 17 -34 17 l-40 0
-18 -81 c-19 -87 -43 -129 -76 -129 -19 0 -20 4 -14 45 3 25 9 66 12 92 6 38
4 48 -11 60 -22 15 -61 16 -92 1z"/>
<path d="M3973 390 c-30 -12 -29 -28 1 -23 34 7 37 -13 15 -103 -25 -108 -25
-106 18 -102 35 3 38 6 46 43 20 94 39 145 55 154 14 8 17 4 17 -22 0 -26 5
-33 23 -35 31 -5 52 15 52 47 0 51 -44 67 -89 32 -23 -18 -24 -18 -42 0 -20
20 -59 24 -96 9z"/>
</g>
</svg>
