<?xml version="1.0" standalone="no"?>
<!DOCTYPE svg PUBLIC "-//W3C//DTD SVG 20010904//EN"
 "http://www.w3.org/TR/2001/REC-SVG-20010904/DTD/svg10.dtd">
<svg version="1.0" xmlns="http://www.w3.org/2000/svg"
 width="128.000000pt" height="36.000000pt" viewBox="0 0 128.000000 36.000000"
 preserveAspectRatio="xMidYMid meet">
<metadata>
Created by potrace 1.16, written by Peter Selinger 2001-2019
</metadata>
<g transform="translate(0.000000,36.000000) scale(0.100000,-0.100000)"
fill="#000000" stroke="none">
<path d="M510 280 c0 -5 5 -10 11 -10 6 0 9 -10 7 -22 -2 -18 -10 -23 -38 -24
-42 -2 -80 -42 -80 -84 0 -38 25 -63 54 -53 11 4 36 6 54 5 40 -3 60 7 41 19
-13 8 -8 49 18 157 5 20 1 22 -31 22 -20 0 -36 -4 -36 -10z"/>
<path d="M690 281 c0 -5 5 -11 11 -13 7 -2 9 -13 5 -24 -4 -15 -15 -21 -36
-21 -18 0 -40 -9 -55 -23 -51 -48 -21 -140 35 -110 11 6 31 8 45 4 14 -3 33
-3 42 1 17 6 17 7 1 16 -17 9 -15 21 19 157 5 20 2 22 -31 22 -20 0 -36 -4
-36 -9z"/>
<path d="M60 272 c0 -4 4 -12 9 -17 15 -16 -15 -127 -40 -148 -21 -17 -21 -17
21 -17 37 0 41 2 30 15 -10 12 -10 27 0 77 15 68 22 61 35 -34 3 -27 11 -48
16 -48 5 0 28 29 51 65 22 36 43 64 45 61 10 -10 -19 -116 -35 -126 -13 -7 -3
-9 38 -10 37 0 50 3 41 9 -13 8 -13 19 -1 81 7 40 20 74 27 77 26 10 12 23
-25 23 -35 0 -40 -4 -71 -55 -35 -57 -51 -63 -51 -17 0 59 -10 72 -51 72 -22
0 -39 -4 -39 -8z"/>
<path d="M814 216 c-34 -15 -44 -33 -44 -77 0 -60 88 -75 130 -21 51 65 -8
132 -86 98z"/>
</g>
</svg>
