<?xml version="1.0" standalone="no"?>
<!DOCTYPE svg PUBLIC "-//W3C//DTD SVG 20010904//EN"
 "http://www.w3.org/TR/2001/REC-SVG-20010904/DTD/svg10.dtd">
<svg version="1.0" xmlns="http://www.w3.org/2000/svg"
 width="82.000000pt" height="40.000000pt" viewBox="0 0 82.000000 40.000000"
 preserveAspectRatio="xMidYMid meet">
<metadata>
Created by potrace 1.16, written by Peter Selinger 2001-2019
</metadata>
<g transform="translate(0.000000,40.000000) scale(0.100000,-0.100000)"
fill="#000000" stroke="none">
<path d="M614 305 c-20 -19 -40 -35 -43 -35 -3 0 -11 10 -16 22 -19 42 -44 34
-110 -36 -63 -65 -89 -115 -83 -158 2 -15 11 -24 25 -26 19 -3 27 6 47 52 27
61 36 67 51 33 16 -36 57 -34 93 4 l30 33 9 -35 c7 -27 15 -35 37 -37 28 -4
29 -3 22 36 -4 31 0 49 20 87 32 61 27 95 -15 95 -20 0 -42 -12 -67 -35z"/>
<path d="M247 275 c-102 -21 -109 -24 -105 -48 3 -19 9 -22 51 -21 43 0 47 -2
41 -20 -12 -40 -34 -64 -69 -76 -44 -14 -53 -8 -35 24 28 54 -22 78 -60 29
-25 -32 -21 -79 7 -100 25 -19 99 -16 143 7 40 20 82 79 94 133 5 19 13 27 29
27 34 0 50 15 42 39 -8 25 -35 26 -138 6z"/>
</g>
</svg>
