<?xml version="1.0" standalone="no"?>
<!DOCTYPE svg PUBLIC "-//W3C//DTD SVG 20010904//EN"
 "http://www.w3.org/TR/2001/REC-SVG-20010904/DTD/svg10.dtd">
<svg version="1.0" xmlns="http://www.w3.org/2000/svg"
 width="128.000000pt" height="36.000000pt" viewBox="0 0 128.000000 36.000000"
 preserveAspectRatio="xMidYMid meet">
<metadata>
Created by potrace 1.16, written by Peter Selinger 2001-2019
</metadata>
<g transform="translate(0.000000,36.000000) scale(0.100000,-0.100000)"
fill="#000000" stroke="none">
<path d="M510 280 c0 -5 5 -10 11 -10 6 0 9 -10 7 -22 -2 -19 -10 -24 -40 -26
-26 -2 -44 -11 -58 -29 -33 -42 -23 -105 16 -103 10 1 40 1 66 1 46 -1 71 12
44 22 -11 5 -11 18 5 84 10 43 18 81 19 86 0 4 -16 7 -35 7 -19 0 -35 -4 -35
-10z"/>
<path d="M690 281 c0 -5 5 -11 11 -13 7 -2 9 -13 5 -26 -6 -17 -15 -22 -41
-22 -42 0 -75 -38 -75 -87 0 -26 5 -36 23 -42 12 -5 29 -5 38 0 9 4 32 6 51 2
21 -3 38 -1 42 6 4 6 0 11 -9 11 -12 0 -14 7 -9 28 3 15 10 43 14 62 23 99 24
90 -15 90 -19 0 -35 -4 -35 -9z"/>
<path d="M60 272 c0 -4 4 -12 9 -17 15 -16 -15 -127 -40 -148 -21 -17 -21 -17
21 -17 36 0 41 2 30 15 -10 12 -10 29 1 82 11 61 13 65 20 38 4 -16 10 -51 14
-77 3 -27 10 -48 16 -48 5 0 29 32 54 70 25 39 47 70 49 70 10 0 -27 -127 -41
-137 -14 -11 -8 -13 38 -13 36 0 49 3 40 9 -12 8 -13 20 -2 81 8 42 19 74 27
77 27 10 14 23 -24 23 -35 0 -40 -4 -70 -55 -35 -57 -52 -63 -52 -17 0 59 -10
72 -51 72 -22 0 -39 -4 -39 -8z"/>
<path d="M791 196 c-32 -34 -26 -86 11 -104 50 -23 118 21 118 77 0 53 -88 71
-129 27z"/>
</g>
</svg>
